/* XPM */
static char * coin_xpm[] = {
"32 32 12 1",
" 	c #FEE761",
".	c #FEAE34",
"+	c #7A7575",
"@	c #181425",
"#	c #C0CBDC",
"$	c #8B9BB4",
"%	c #FFFFFF",
"&	c #743F39",
"*	c #3F2832",
"=	c #63C74D",
"-	c #2CE8F5",
";	c #124E89",
"                              ..",
"                              . ",
"                             .. ",
"                             .. ",
"               ++           ... ",
"              +@@+         ...  ",
"      ++++++++@#$@++++++++...   ",
"      +%% %          %% %+..    ",
"      +.&&&&&&&&&&&&&&&&.+.     ",
"      +.****************.+      ",
"      +.****************.+      ",
"      +.****************.+      ",
"      +.&&************&&.+      ",
"      +.&&&&&&&&&&&&&&&&.+      ",
"      +..................+      ",
"      +.&&&&&&&&&&&&&&&&.+      ",
"      + &&****% =% ***&& +      ",
"    ..+ ***%%-     %.*** +      ",
"   ...+%@.;...%......=@@%+      ",
"  ....+%% %          % %%+      ",
"  ....+%****************%+      ",
" .... + *&&&&&&&&&&&&&&* +      ",
" .... + *&&&&&&&&&&&&&&* +      ",
" ...  + *&&&&&&&&&&&&&&* +      ",
"...   +@ &&&&&&&&&&&&&& @+      ",
"...   +.@  %%%%%%%%% % @.+      ",
"..    ++++++++++++++++++++      ",
"..                              ",
".                               ",
".                              .",
"                               .",
"                               ."};
