/* XPM */
static char * exit_xpm[] = {
"32 32 64 1",
" 	c #FEE761",
".	c #FEAE34",
"+	c #B86F50",
"@	c #743F39",
"#	c #D3A556",
"$	c #E4C15A",
"%	c #DFB959",
"&	c #EFD15D",
"*	c #E2BE5A",
"=	c #F6DB5F",
"-	c #FAE160",
";	c #CA9454",
">	c #DDB659",
",	c #DAB058",
"'	c #EDCE5D",
")	c #E6C45B",
"!	c #EACA5C",
"~	c #F4D85E",
"{	c #F0D25D",
"]	c #BF7F52",
"^	c #D9AF58",
"/	c #D6AA57",
"(	c #E0BB59",
"_	c #E7C55B",
":	c #E5C25B",
"<	c #E2BD5A",
"[	c #D7AC57",
"}	c #DB9045",
"|	c #D58A47",
"1	c #DE9244",
"2	c #EEA03D",
"3	c #E89B40",
"4	c #EC9F3E",
"5	c #EB9E3E",
"6	c #F1D55E",
"7	c #E19543",
"8	c #DD9244",
"9	c #EFA13D",
"0	c #ECCD5C",
"a	c #F0D35D",
"b	c #E9C85C",
"c	c #F8DE5F",
"d	c #F5DA5F",
"e	c #F7DC5F",
"f	c #F8DF5F",
"g	c #F9DF60",
"h	c #F2D55E",
"i	c #E8C75B",
"j	c #F3D75E",
"k	c #F4D95E",
"l	c #C0A44D",
"m	c #875E3D",
"n	c #BC7851",
"o	c #E0BA59",
"p	c #C28652",
"q	c #E3BF5A",
"r	c #EED05D",
"s	c #C68E53",
"t	c #E6C35B",
"u	c #987542",
"v	c #C3A84E",
"w	c #9F7E44",
"x	c #B99C4B",
"y	c #AA8B47",
"                              ..",
"                              . ",
"                             .. ",
"          +++++++++++        .. ",
"         ++++++++++++@      ... ",
"         ++#$%&*=-%;++     ...  ",
"         ++>,')!~{%;@+    ...   ",
"         @++@@@@++@@@@   ...    ",
"         ++++++++++]++  ...     ",
"         ++^%/>(_>!:>+....      ",
"         ++!,><>,$>[}+...       ",
"         @@+++++++++@@..        ",
"         @@+@@+@@@@@@@          ",
"         +++++++++++++          ",
"         ++|12333456;+          ",
"        .++7389990&a/+          ",
"      ...++@@+++++++++          ",
"    .....@@@@@@++@@@@@          ",
"   ......+++++++++++++          ",
"  ...... ++++]]]]]]+++          ",
"  .....  +b~cddeefghi+          ",
" ....    +^hj{jd{j{kl+          ",
" ....    @@@@@@@@++@@@          ",
" ...     @@@@++++m@@@+          ",
"...      +no:!,%!_(!++          ",
"...      +pq!,0<!rb!++          ",
"..       ++++]+++++++@          ",
"..       @+st>/>/>;+@           ",
".        @@uvwxyxyw@@           ",
".         @@@@@@@@@@           .",
"                               .",
"                               ."};
