/* XPM */
static char * player_xpm[] = {
"32 32 19 1",
" 	c #FEE761",
".	c #FEAE34",
"+	c #37322C",
"@	c #4F3D23",
"#	c #6D542C",
"$	c #7F6A4C",
"%	c #34241D",
"&	c #4F2F33",
"*	c #765A4C",
"=	c #8D7262",
"-	c #FF5E53",
";	c #F4F4F4",
">	c #5E4236",
",	c #FFA398",
"'	c #C28800",
")	c #FFB300",
"!	c #FFEF00",
"~	c #FFD100",
"{	c #AC8B61",
"                              ..",
"                              . ",
"                             .. ",
"                             .. ",
"        ++++       ++++     ... ",
"       +@#$#+     +#$#@+   ...  ",
"       +#@@$+++++++$@@#+  ...   ",
"       +#@@#@#####@#@@#+ ...    ",
"        +@#$$$$$$$$$#@+ ...     ",
"       +@#$$$$$$$$$$$#@+..      ",
"     % +#$$&$$$$$$$&$$#+.%      ",
"    %*%+#$$&&$$$$$&&$$#+%*%     ",
"   %*=%+#$$-;$$$$$;-$$#+%=*%    ",
"   >=*>+#$$,,$'''$,,$$#+>*=>    ",
"  %*=>>+@#$$$')!)'$$$#@+>>=*%   ",
"  >=*>>>+@#$')~!~)'$#@+>>>*=>   ",
" %*=>>>>>++@{'''''{@++>>>>>=*%  ",
" %**>>>>>>+++++++++++>>>>>>**%  ",
" %**>>>>>+#$#######$#+>>>>>**%  ",
" %*>>>>>+#$@$$$$$$$@$#+>>>>>*%  ",
" %*>>%>+@#@+$$$$$$$+@#@+>%>>*%  ",
" %*>>%>+@@++$$$$$$$++@@+>%>>*%  ",
" .>>% % ++ +#$$$$$#+ ++ % %>>   ",
" .%>%      +#@@@@@#+      %>%   ",
"...%       +##+++##+       %    ",
"...        +##+ +##+            ",
"..         +@@+ +@@+            ",
"..          ++   ++             ",
".                               ",
".                              .",
"                               .",
"                               ."};
