/* XPM */
static char * wall_xpm[] = {
"32 32 5 1",
" 	c #FEAE34",
".	c #F77622",
"+	c #FDA732",
"@	c #FDA833",
"#	c #FDA933",
"                              ..",
"                              . ",
"                             .. ",
"                             .. ",
"                            ... ",
"                           ...  ",
"                          ...   ",
"                         ...    ",
"                        ...     ",
"                      ....      ",
"                    .....       ",
"                   .....        ",
"                 .....          ",
"              ......            ",
"           ........             ",
"        .........               ",
"      ........                  ",
"    .......                     ",
"   .......                      ",
"  ......                        ",
"  .....                         ",
" ....                           ",
" ....                           ",
" ...                            ",
"...                             ",
"...                             ",
"..                              ",
"..                              ",
".                               ",
".                              +",
"                               @",
"                               #"};
